<svg xmlns="http://www.w3.org/2000/svg" id="Layer_1" data-name="Layer 1" viewBox="0 0 568.13 167.94"><defs><style>.cls-2{fill:#da291c}.cls-3{fill:#707372}</style></defs><path d="M151.92 155.02c-1.19 1.2-2.64 1.8-4.32 1.8s-3.13-.6-4.32-1.8c-1.18-1.19-1.78-2.63-1.78-4.33s.6-3.12 1.79-4.31 2.62-1.78 4.31-1.78 3.13.6 4.32 1.78c1.19 1.19 1.79 2.62 1.79 4.31s-.6 3.14-1.79 4.33m-8.03-8.04q-1.53 1.545-1.53 3.72c0 2.175.51 2.71 1.52 3.74 1.02 1.03 2.26 1.55 3.72 1.55s2.69-.52 3.71-1.55c1.02-1.04 1.53-2.28 1.53-3.74s-.51-2.69-1.53-3.72c-1.03-1.03-2.27-1.55-3.71-1.55s-2.69.52-3.71 1.55m3.59.34c.83 0 1.45.08 1.83.24.69.29 1.04.86 1.04 1.7 0 .6-.22 1.04-.65 1.32-.23.15-.56.26-.97.32.52.08.9.3 1.15.65.24.35.37.7.37 1.04v.49c0 .16 0 .32.02.5 0 .18.03.29.06.35l.04.08h-1.1s-.01-.04-.02-.06c0-.03-.01-.05-.02-.08l-.02-.22v-.54q0-1.155-.63-1.53c-.25-.15-.68-.22-1.31-.22h-.94V154h-1.18v-6.7h2.34Zm1.28 1.06c-.3-.17-.77-.25-1.43-.25h-1.01v2.43h1.07c.5 0 .88-.05 1.12-.15q.69-.27.69-1.05c0-.49-.14-.81-.45-.98m-5.13-36.94c2.78-2.48 3.02-6.75.54-9.54a6.765 6.765 0 0 0-9.54-.54l-24.97 22.33c7.65 7.01 6.85 11.93 6.85 11.93l27.12-24.19Zm-47.39-1.86-5.3-5.59 16.78-15.12c1.55-1.43 3.99-1.32 5.43.25 1.45 1.57 1.35 4-.21 5.44l-16.71 15.02Zm10.58 11.15-7.69-8.15 19.81-17.98a5.6 5.6 0 0 1 7.92.25 5.6 5.6 0 0 1-.25 7.92z" class="cls-2"/><path d="M51.77 84.31c7.39.59 11.66 1.07 16.97 4.17 4.34 2.53 8.23 6.58 11.9 10.56l.15.16 3.04 3.29 26.38 27.75a8.62 8.62 0 0 1 2.14 5.7c0 4.77-3.87 8.64-8.65 8.64-2.41 0-4.6-.99-6.17-2.59l-23.66-24.9-.02-.04a2.068 2.068 0 0 0-3.56 1.43c0 .55.21 1.05.56 1.43l.06.07 21.67 22.87c2.22 2.28 4.95 4.43 7.53 5.35 2.64.94 7.63.53 9.84-1.04 1.31-.94 2.54-1.97 3.71-3.03l39.03-35.21.16-.11c1.4-.99 3.1-1.57 4.94-1.57 4.73 0 8.55 3.83 8.55 8.55 0 2.48-1.05 4.7-2.72 6.26l-27.35 24.63c-5.94 5.04-11.92 12.23-19.18 15.89-19.84 9.97-38.07 4.89-52.5-5.84-7.09-5.28-14.18-11.1-23.54-14.23-4.51-1.51-16.26-1.83-25.93-1.81l-15.13.02V84c1.57-22.93 10.95-43.56 25.35-58.66C40.22 9.73 60.6 0 83.06 0c23.16 0 44.11 10.34 59.09 26.81 15 16.47 24.18 39.1 24.19 63.99 0 2.62 0 4.59-.21 7.16-.25 3.3-3.01 5.81-6.27 5.81-.16 0-.33 0-.5-.02a6.297 6.297 0 0 1-5.79-6.77c.17-2.24.16-3.89.16-6.18 0-21.78-8.04-41.39-20.9-55.51-12.88-14.12-30.42-22.69-49.78-22.69-18.77 0-35.83 8.06-48.6 21.43C22.23 46.84 14.08 64.49 12.61 84.3h4.81c.74-17.79 7.87-33.88 19.08-45.72 11.84-12.53 28.34-20.36 46.54-20.35 18.2 0 34.69 7.82 46.54 20.35 11.86 12.52 19.15 29.8 19.15 48.81 0 2.15-.1 4.28-.28 6.38-.22 2.57-2.49 4.47-5.06 4.25a4.665 4.665 0 0 1-4.24-5.06c.16-1.83.24-3.69.24-5.57 0-16.61-6.37-31.58-16.6-42.4-10.24-10.81-24.26-17.42-39.75-17.43-15.5 0-29.51 6.62-39.76 17.43C33.69 55.13 27.5 68.93 26.76 84.3h5.66c.26-14.02 5.84-26.73 14.76-35.99C56.31 38.83 69 32.92 83 32.92s26.7 5.91 35.82 15.39c9.14 9.48 14.77 22.58 14.77 36.99 0 1.6-.06 3.18-.21 4.74a3.685 3.685 0 0 1-4 3.36 3.685 3.685 0 0 1-3.36-4c.11-1.35.17-2.72.17-4.11 0-12.47-4.86-23.72-12.7-31.86-7.85-8.14-18.61-13.13-30.51-13.13s-22.66 4.99-30.51 13.13c-7.62 7.92-12.44 18.78-12.69 30.86h5.86c.46-20.92 16.89-37.88 37.35-37.9 20.73.02 37.51 17.92 37.55 39.21 0 1.68-1.37 3.04-3.04 3.04s-3.04-1.36-3.04-3.04c0-9.05-3.71-17.71-9.39-23.61-5.69-5.9-13.46-9.51-22.07-9.52-8.61 0-16.39 3.62-22.08 9.52-5.49 5.71-8.97 13.54-9.19 22.25v.05Z" class="cls-2"/><path d="M85.48 70.64c-.57.54-1.32.9-2.17.9s-1.64-.38-2.21-.95l-7.5-6.7a3.27 3.27 0 0 0-4.61.26 3.25 3.25 0 0 0 .27 4.6l7.06 6.28s3.46 2.81 3.46 10.42l.05 5.02v1.8c0 1.8 1.45 3.26 3.25 3.26h.46a3.24 3.24 0 0 0 3.25-3.26v-1.8l.05-5.01c0-7.61 3.46-10.42 3.46-10.42l7.06-6.28a3.26 3.26 0 0 0 .27-4.6 3.26 3.26 0 0 0-4.6-.26l-7.55 6.73Z" class="cls-2"/><path d="M87.71 62.88c0 2.42-1.97 4.38-4.38 4.38s-4.38-1.96-4.38-4.38 1.96-4.38 4.38-4.38 4.38 1.96 4.38 4.38" class="cls-2"/><path d="M240.98 67.97c0 12.12-7.06 21.12-20.62 21.12s-20.69-9-20.69-21.12V38.51h10.79v29.03c0 6.31 4.16 11.1 9.9 11.1s9.83-4.79 9.83-11.1V38.51h10.79zm4.96-15.44h9.97v4.78h.14c1.38-2.76 4.78-5.66 9.82-5.66 10.52 0 12.46 7.26 12.46 16.69v19.44h-10.39V70.51c0-4.06-.06-9.29-5.4-9.29s-6.23 4.42-6.23 9v17.56h-10.38V52.52Zm48.29 35.26h-10.37V52.53h18.81V38.5h10.39v14.03h9.13v8.71h-9.13V73c0 3.78.41 6.52 4.91 6.52 1.12 0 3.33-.14 4.22-1.02v9.07c-2.28.86-4.85 1.09-7.27 1.09-6.92 0-12.25-2.97-12.25-10.65V61.24h-8.45V87.8Zm62.62-6.1c-3.32 4.43-8.78 6.96-14.18 6.96-10.38 0-18.68-7.26-18.68-18.5s8.3-18.5 18.68-18.5c9.68 0 15.78 7.26 15.78 18.5v3.42h-24.08c.83 4.13 3.8 6.81 7.81 6.81 3.4 0 5.67-1.81 7.41-4.27l7.26 5.59Zm-8.77-15.53c.06-3.63-2.64-6.68-6.37-6.68-4.57 0-7.06 3.28-7.33 6.68zm49.54 21.62h-9.55v-4.63h-.14c-1.59 2.53-5.61 5.51-10.31 5.51-9.97 0-16.54-7.55-16.54-18.21 0-9.79 5.8-18.79 15.36-18.79 4.29 0 8.3 1.24 10.66 4.65h.13V38.53h10.39v49.26Zm-17.86-26.56c-5.19 0-8.31 3.63-8.31 8.92s3.12 8.93 8.31 8.93 8.32-3.63 8.32-8.93-3.11-8.92-8.32-8.92m121.02 22.13h-.13c-2.29 3.78-6.44 5.3-10.66 5.3-6.3 0-11.96-3.77-11.96-10.88 0-12.2 14.1-12.41 22.76-12.41 0-3.85-3.04-6.32-6.64-6.32-3.39 0-6.23 1.61-8.44 4.21l-5.54-5.95c3.81-3.78 9.35-5.66 14.82-5.66 12.11 0 15.36 6.44 15.36 18.2v17.93h-9.55v-4.43Zm-2.56-11.03c-3.19 0-10.25.3-10.25 5.09 0 2.61 2.64 3.85 4.93 3.85 4.08 0 7.88-2.26 7.88-6.62v-2.32zm35.39 21.19c-2.78 7.48-4.36 11.68-14.25 11.68-2.63 0-5.27-.43-7.76-1.29l1.38-8.94c1.6.75 3.12 1.09 4.85 1.09 4.71 0 5.46-2.1 6.92-5.94l.77-2.03-14.75-35.55h11.22l8.65 23.29h.14l7.41-23.29h10.65l-15.22 40.99ZM481.9 38.53 468.15 87.8h-9.61l-10.82-33.42h-.15L436.81 87.8h-9.28l-13.94-49.27h11.68l7.32 30.85h.13l10.23-30.82h10.04l10.18 31.68h.15l7.71-31.71z" class="cls-3"/><path d="M283.87 38.51h10.38v8.97h-10.38z" class="cls-3"/><path d="M225.83 111.26c-2.42-2.55-4.64-3.25-6.92-3.25-6.78 0-11.28 5.2-11.28 11.75 0 7.01 4.5 12.21 11.28 12.21 2.65 0 5.2-1.21 7.38-3.99l4.83 3.43c-2.97 4.09-7.43 5.85-12.26 5.85-10.12 0-17.36-6.87-17.36-17.13s7.24-17.41 17.36-17.41c4.46 0 8.27 1.44 11.51 5.2l-4.55 3.34Zm22.35 15.19h-1.16c-3.07 0-8.36.23-8.36 3.44 0 2.04 2.09 2.92 3.9 2.92 3.81 0 5.62-2 5.62-5.11zm.32 6.92h-.14c-1.58 2.51-4.18 3.62-7.15 3.62-4.13 0-8.13-2.28-8.13-6.69 0-7.24 8.45-7.75 14.02-7.75h1.39v-.6c0-2.74-2.13-4.18-5.1-4.18-2.32 0-4.46.93-5.94 2.32l-2.93-2.93c2.46-2.51 5.94-3.58 9.47-3.58 9.52 0 9.52 6.87 9.52 10.03v12.82h-5.02v-3.06Zm9.25-32.04h5.57v35.1h-5.57zm14.59 23.91c0 3.53 2.79 6.45 6.55 6.45 4.13 0 6.64-2.83 6.64-6.55s-2.55-6.55-6.6-6.55-6.59 2.69-6.59 6.64m18.48-11.09v20.29c0 8.03-3.9 13.14-12.58 13.14-4.13 0-7.89-.88-11.05-3.67l3.34-4.55c2.23 2.04 4.55 3.2 7.66 3.2 5.38 0 7.05-3.06 7.05-7.48v-1.63h-.09c-1.63 2.18-4.51 3.25-7.29 3.25-6.69 0-11.1-5.11-11.1-11.42s4.13-11.7 11.01-11.7c3.11 0 6.04 1.21 7.66 3.9h.09v-3.35h5.29Zm19.01 12.31h-1.16c-3.06 0-8.36.23-8.36 3.44 0 2.04 2.09 2.92 3.9 2.92 3.81 0 5.62-2 5.62-5.11zm.32 6.92h-.14c-1.58 2.51-4.18 3.62-7.15 3.62-4.13 0-8.13-2.28-8.13-6.69 0-7.24 8.45-7.75 14.02-7.75h1.39v-.6c0-2.74-2.13-4.18-5.1-4.18-2.32 0-4.46.93-5.94 2.32l-2.93-2.93c2.46-2.51 5.94-3.58 9.47-3.58 9.52 0 9.52 6.87 9.52 10.03v12.82h-5.02v-3.06Zm11.02-19.23h5.57v3.53h.09c1.21-2.55 3.67-4.09 6.59-4.09.7 0 1.35.14 2 .32v5.39c-.93-.23-1.81-.42-2.69-.42-5.25 0-5.99 4.41-5.99 5.62v11.94h-5.57zm15.05 0h6.13l6.22 15.46h.09l5.57-15.46h5.8l-10.54 27.07c-1.63 4.18-3.57 6.36-8.5 6.36-1.44 0-2.88-.18-4.27-.56l.7-5.02c.89.33 1.86.56 2.83.56 2.74 0 3.48-.98 4.41-3.3l1.07-2.65-9.52-22.47Zm54.49 12.31h-1.16c-3.06 0-8.36.23-8.36 3.44 0 2.04 2.09 2.92 3.9 2.92 3.81 0 5.62-2 5.62-5.11zm.32 6.92h-.14c-1.58 2.51-4.18 3.62-7.15 3.62-4.13 0-8.13-2.28-8.13-6.69 0-7.24 8.45-7.75 14.02-7.75h1.4v-.6c0-2.74-2.14-4.18-5.11-4.18-2.32 0-4.46.93-5.94 2.32l-2.93-2.93c2.46-2.51 5.94-3.58 9.47-3.58 9.52 0 9.52 6.87 9.52 10.03v12.82h-5.01zm11.02-19.23h5.29v3.57h.09c1.02-2.23 3.11-4.13 6.82-4.13 5.99 0 8.13 4.22 8.13 8.78v14.07h-5.57v-11.28c0-2.46-.19-6.55-4.09-6.55-3.67 0-5.11 2.69-5.11 5.66v12.17h-5.57v-22.29Zm37.67 17.83c4.09 0 6.54-3.2 6.54-6.69s-2.46-6.69-6.54-6.69-6.55 3.2-6.55 6.69 2.46 6.69 6.55 6.69m6.64 1.12h-.09c-1.62 2.69-4.55 3.9-7.66 3.9-6.87 0-11.01-5.11-11.01-11.7s4.41-11.7 10.77-11.7c4.18 0 6.41 1.95 7.57 3.39h.14v-15.65h5.57v35.1h-5.29v-3.35Zm43.95-9.2-5.06-13.37-5.15 13.37h10.22Zm-7.43-20.33h5.06l14.16 32.87h-6.69l-3.07-7.52h-14.25l-2.97 7.52h-6.55l14.3-32.87Zm22.4 10.58h5.57v3.53h.09c1.21-2.55 3.67-4.09 6.59-4.09.7 0 1.35.14 2 .32v5.39c-.93-.23-1.81-.42-2.69-.42-5.25 0-5.99 4.41-5.99 5.62v11.94h-5.57zm33.12 8.92c-.05-3.25-2.18-5.29-5.66-5.29-3.3 0-5.34 2.09-5.76 5.29zm-11.43 4.18c.37 3.3 2.88 5.29 5.99 5.29 2.79 0 4.6-1.3 5.99-3.02l3.99 3.02c-2.6 3.2-5.9 4.46-9.43 4.46-6.73 0-12.12-4.69-12.12-11.7s5.39-11.7 12.12-11.7c6.22 0 10.45 4.37 10.45 12.12v1.53zm35.82-.79h-1.16c-3.06 0-8.36.23-8.36 3.44 0 2.04 2.09 2.92 3.9 2.92 3.81 0 5.62-2 5.62-5.11zm.32 6.92h-.14c-1.58 2.51-4.18 3.62-7.15 3.62-4.13 0-8.13-2.28-8.13-6.69 0-7.24 8.45-7.75 14.02-7.75h1.4v-.6c0-2.74-2.14-4.18-5.11-4.18-2.33 0-4.46.93-5.94 2.32l-2.93-2.93c2.46-2.51 5.94-3.58 9.47-3.58 9.52 0 9.52 6.87 9.52 10.03v12.82h-5.01z" style="fill:#231f20"/></svg>